<svg width="16" height="16" viewBox="0 0 16 16" fill="none" xmlns="http://www.w3.org/2000/svg">
<path d="M8.1401 7.00254H14.7237C14.7964 7.40815 14.8327 7.7956 14.8327 8.16488C14.8327 9.47858 14.5572 10.6515 14.0063 11.6837C13.4554 12.7159 12.6699 13.5226 11.6498 14.1038C10.6298 14.6849 9.45985 14.9755 8.1401 14.9755C7.18964 14.9755 6.28458 14.7924 5.42493 14.4261C4.56528 14.0599 3.82368 13.565 3.20012 12.9414C2.57657 12.3179 2.08167 11.5763 1.71541 10.7166C1.34915 9.85695 1.16602 8.95189 1.16602 8.00143C1.16602 7.05097 1.34915 6.14591 1.71541 5.28626C2.08167 4.4266 2.57657 3.685 3.20012 3.06145C3.82368 2.4379 4.56528 1.943 5.42493 1.57673C6.28458 1.21047 7.18964 1.02734 8.1401 1.02734C9.95627 1.02734 11.5151 1.63576 12.8167 2.85259L10.9188 4.67784C10.1742 3.95743 9.24796 3.59722 8.1401 3.59722C7.35915 3.59722 6.63722 3.79397 5.97432 4.18748C5.31142 4.58098 4.78624 5.11523 4.3988 5.79024C4.01135 6.46525 3.81762 7.20231 3.81762 8.00143C3.81762 8.80054 4.01135 9.5376 4.3988 10.2126C4.78624 10.8876 5.31142 11.4219 5.97432 11.8154C6.63722 12.2089 7.35915 12.4056 8.1401 12.4056C8.66679 12.4056 9.1511 12.333 9.59304 12.1877C10.035 12.0424 10.3982 11.8608 10.6827 11.6428C10.9673 11.4249 11.2155 11.1767 11.4274 10.8982C11.6393 10.6197 11.7951 10.3564 11.895 10.1082C11.9949 9.85997 12.063 9.62387 12.0993 9.39988H8.1401V7.00254Z" fill="#17696A"/>
</svg>
