<svg style="display: none;" aria-hidden="true" xmlns="http://www.w3.org/2000/svg" xmlns:xlink="http://www.w3.org/1999/xlink"><symbol viewBox="0 0 18 12"   id="svg-arrow"><path fill-rule="evenodd" clip-rule="evenodd" d="M11.7929 0.792893C12.1834 0.402369 12.8166 0.402369 13.2071 0.792893L17.7071 5.29289C18.0976 5.68342 18.0976 6.31658 17.7071 6.70711L13.2071 11.2071C12.8166 11.5976 12.1834 11.5976 11.7929 11.2071C11.4024 10.8166 11.4024 10.1834 11.7929 9.79289L14.5858 7H1C0.447715 7 0 6.55228 0 6C0 5.44772 0.447715 5 1 5H14.5858L11.7929 2.20711C11.4024 1.81658 11.4024 1.18342 11.7929 0.792893Z"  /></symbol><symbol viewBox="0 0 16 16"   id="svg-arrow-mini"><path fill-rule="evenodd" clip-rule="evenodd" d="M5.52925 2.86225C5.7896 2.6019 6.21171 2.6019 6.47206 2.86225L11.1387 7.52892C11.3991 7.78927 11.3991 8.21138 11.1387 8.47173L6.47206 13.1384C6.21171 13.3987 5.7896 13.3987 5.52925 13.1384C5.2689 12.878 5.2689 12.4559 5.52925 12.1956L9.72451 8.00033L5.52925 3.80506C5.2689 3.54471 5.2689 3.1226 5.52925 2.86225Z"  /></symbol><symbol viewBox="0 0 22 22" id="svg-cart"><path fill-rule="evenodd" clip-rule="evenodd" d="M2.8798 2.75768C2.79028 2.75093 2.66604 2.75033 2.43306 2.75033H.916667C.410406 2.75033 0 2.33992 0 1.83366 0 1.3274.410406.916996.916667.916996H2.43306C2.4417.916996 2.45034.916995 2.45898.916994 2.65575.91697 2.85058.916946 3.01755.929526 3.20335.943526 3.41921.976408 3.64252 1.07602 3.9568 1.21621 4.22528 1.44203 4.41724 1.72764 4.55364 1.93058 4.62303 2.13761 4.66865 2.31827 4.70966 2.48061 4.74301 2.67256 4.77671 2.86642 4.77818 2.87494 4.77966 2.88345 4.78115 2.89197L4.99956 4.14787 16.9291 4.50099C17.3965 4.51481 17.8005 4.52676 18.1332 4.5634 18.4849 4.60213 18.8336 4.67496 19.168 4.85314 19.6748 5.12313 20.0844 5.545 20.3393 6.05956 20.5075 6.39915 20.5699 6.7498 20.5982 7.10246 20.625 7.4361 20.625 7.84027 20.625 8.30795V8.37555C20.625 8.81506 20.625 9.19632 20.6004 9.51247 20.5743 9.84775 20.5167 10.1808 20.3631 10.5071 20.1293 11.0037 19.7523 11.419 19.2804 11.6996 18.9704 11.8839 18.6445 11.9733 18.3133 12.0316 18.001 12.0865 17.6216 12.1232 17.1841 12.1656L8.26136 13.029C7.81293 13.0725 7.4244 13.1101 7.10024 13.1158 6.75679 13.1218 6.41246 13.0951 6.06676 12.9682 5.54832 12.7777 5.09924 12.4356 4.778 11.9863 4.5638 11.6867 4.44668 11.3618 4.36134 11.029 4.28079 10.715 4.21392 10.3304 4.13675 9.88658L2.97492 3.20609C2.935 2.97655 2.91312 2.85426 2.89114 2.76721 2.89036 2.76412 2.8896 2.76118 2.88887 2.7584 2.88601 2.75816 2.88298 2.75792 2.8798 2.75768zM5.32019 5.99149L5.93719 9.53925C6.02181 10.0258 6.07681 10.3382 6.13719 10.5736 6.19478 10.7981 6.24033 10.8794 6.26935 10.92 6.37643 11.0697 6.52612 11.1838 6.69894 11.2473 6.74577 11.2645 6.83624 11.2868 7.06799 11.2827 7.31098 11.2785 7.62676 11.2486 8.11829 11.201L16.9745 10.3439C17.4543 10.2975 17.762 10.2671 17.9956 10.226 18.2181 10.1868 18.3011 10.1489 18.3435 10.1238 18.5008 10.0302 18.6264 9.89181 18.7044 9.72626 18.7254 9.68167 18.7551 9.59536 18.7726 9.37014 18.791 9.13371 18.7917 8.82451 18.7917 8.34246 18.7917 7.8305 18.791 7.50062 18.7708 7.24915 18.7515 7.00853 18.7187 6.91832 18.6964 6.87332 18.6115 6.7018 18.4749 6.56118 18.306 6.47118 18.2617 6.44757 18.1725 6.41214 17.9325 6.38572 17.6818 6.3581 17.3521 6.34765 16.8403 6.3325L5.32019 5.99149zM7.79167 16.042C7.28541 16.042 6.875 16.4524 6.875 16.9587 6.875 17.4649 7.28541 17.8753 7.79167 17.8753 8.29793 17.8753 8.70833 17.4649 8.70833 16.9587 8.70833 16.4524 8.29793 16.042 7.79167 16.042zM5.04167 16.9587C5.04167 15.4399 6.27288 14.2087 7.79167 14.2087 9.31045 14.2087 10.5417 15.4399 10.5417 16.9587 10.5417 18.4774 9.31045 19.7087 7.79167 19.7087 6.27288 19.7087 5.04167 18.4774 5.04167 16.9587zM16.5 16.042C15.9937 16.042 15.5833 16.4524 15.5833 16.9587 15.5833 17.4649 15.9937 17.8753 16.5 17.8753 17.0063 17.8753 17.4167 17.4649 17.4167 16.9587 17.4167 16.4524 17.0063 16.042 16.5 16.042zM13.75 16.9587C13.75 15.4399 14.9812 14.2087 16.5 14.2087 18.0188 14.2087 19.25 15.4399 19.25 16.9587 19.25 18.4774 18.0188 19.7087 16.5 19.7087 14.9812 19.7087 13.75 18.4774 13.75 16.9587z"  /></symbol><symbol viewBox="0 0 20 20"   id="svg-heart"><path fill-rule="evenodd" clip-rule="evenodd" d="M9.99907 16.5894C6.16651 14.4065 4.02897 12.2369 2.99533 10.3545C1.9374 8.42785 2.02971 6.80512 2.61675 5.65342C3.8234 3.28614 7.25473 2.52916 9.34537 5.17331L9.99902 6.00002L10.6527 5.17335C12.7437 2.52909 16.1752 3.2862 17.3819 5.65342C17.9689 6.80511 18.0612 8.42782 17.0032 10.3545C15.9695 12.2369 13.8318 14.4065 9.99907 16.5894ZM9.9991 3.42157C7.05809 0.626898 2.71943 1.78193 1.13186 4.89654C0.260575 6.60588 0.248673 8.81515 1.53441 11.1567C2.80875 13.4775 5.3495 15.9271 9.59594 18.2742L9.99905 18.497L10.4022 18.2742C14.6488 15.9271 17.1896 13.4775 18.4641 11.1567C19.7499 8.81518 19.738 6.6059 18.8667 4.89654C17.2791 1.78187 12.9404 0.62694 9.9991 3.42157Z"  /></symbol><symbol viewBox="0 0 14 15"   id="svg-person"><path fill-rule="evenodd" clip-rule="evenodd" d="M7.00055 1.66634C5.71188 1.66634 4.66721 2.71101 4.66721 3.99967 4.66721 5.28834 5.71188 6.33301 7.00055 6.33301 8.28921 6.33301 9.33388 5.28834 9.33388 3.99967 9.33388 2.71101 8.28921 1.66634 7.00055 1.66634zM3.33388 3.99967C3.33388 1.97463 4.9755.333008 7.00055.333008 9.02559.333008 10.6672 1.97463 10.6672 3.99967 10.6672 6.02472 9.02559 7.66634 7.00055 7.66634 4.9755 7.66634 3.33388 6.02472 3.33388 3.99967zM3.06992 9.66634C2.60771 9.66634 2.24643 9.8914 2.09979 10.2148 1.89681 10.6623 1.71301 11.1951 1.66964 11.7005 1.65025 11.9264 1.74444 12.0928 1.87423 12.1735 2.56033 12.5997 4.15014 13.333 7.00055 13.333 9.85095 13.333 11.4408 12.5997 12.1269 12.1735 12.2567 12.0928 12.3508 11.9264 12.3315 11.7005 12.2881 11.1951 12.1043 10.6623 11.9013 10.2148 11.7547 9.8914 11.3934 9.66634 10.9312 9.66634H3.06992zM.885499 9.66404C1.2908 8.77039 2.19582 8.33301 3.06992 8.33301H10.9312C11.8053 8.33301 12.7103 8.77039 13.1156 9.66404 13.3484 10.1773 13.5982 10.8673 13.6599 11.5864 13.7161 12.2413 13.4439 12.9249 12.8304 13.3061 11.9281 13.8666 10.0936 14.6663 7.00055 14.6663 3.90748 14.6663 2.07301 13.8666 1.17066 13.3061.557149 12.9249.284988 12.2413.341191 11.5864.40291 10.8673.652708 10.1773.885499 9.66404z"  /></symbol><symbol viewBox="0 0 16 16"   id="svg-search"><path fill-rule="evenodd" clip-rule="evenodd" d="M7.25065 2.16634C4.4432 2.16634 2.16732 4.44223 2.16732 7.24967C2.16732 10.0571 4.4432 12.333 7.25065 12.333C8.65324 12.333 9.92209 11.7658 10.8425 10.8467C11.7647 9.92589 12.334 8.6549 12.334 7.24967C12.334 4.44223 10.0581 2.16634 7.25065 2.16634ZM0.833984 7.24967C0.833984 3.70585 3.70682 0.833008 7.25065 0.833008C10.7945 0.833008 13.6673 3.70585 13.6673 7.24967C13.6673 8.78248 13.1292 10.1905 12.2326 11.2939L14.9716 14.0278C15.2322 14.2879 15.2326 14.7101 14.9725 14.9706C14.7124 15.2312 14.2903 15.2316 14.0297 14.9715L11.2893 12.2362C10.1868 13.13 8.78088 13.6663 7.25065 13.6663C3.70682 13.6663 0.833984 10.7935 0.833984 7.24967Z"  /></symbol></svg>