<svg width="16" height="16" viewBox="0 0 16 16" fill="none" xmlns="http://www.w3.org/2000/svg">
<path d="M14.664 14.6673L14.6673 14.6668V9.77677C14.6673 7.38454 14.1523 5.54176 11.3557 5.54176C10.0112 5.54176 9.10898 6.27954 8.74065 6.97899H8.70176V5.7651H6.05009V14.6668H8.8112V10.259C8.8112 9.09843 9.0312 7.97621 10.4684 7.97621C11.8845 7.97621 11.9057 9.30065 11.9057 10.3334V14.6673H14.664Z" fill="#787A80"/>
<path d="M1.55398 5.76565H4.31843V14.6673H1.55398V5.76565Z" fill="#787A80"/>
<path d="M2.9351 1.33398C2.05121 1.33398 1.33398 2.05121 1.33398 2.9351C1.33398 3.81898 2.05121 4.55121 2.9351 4.55121C3.81898 4.55121 4.53621 3.81898 4.53621 2.9351C4.53565 2.05121 3.81843 1.33398 2.9351 1.33398Z" fill="#787A80"/>
</svg>
