<svg width="20" height="20" viewBox="0 0 20 20" fill="none" xmlns="http://www.w3.org/2000/svg">
<path fill-rule="evenodd" clip-rule="evenodd" d="M18.9596 15.0006V5.83398C18.9596 4.45327 17.8403 3.33398 16.4596 3.33398L3.54297 3.334C2.16226 3.334 1.04297 4.45329 1.04297 5.834V15.0006C1.04297 16.3814 2.16226 17.5006 3.54297 17.5006L16.4596 17.5006C17.8403 17.5006 18.9596 16.3814 18.9596 15.0006ZM17.293 7.71687V15.0006C17.293 15.4609 16.9199 15.834 16.4596 15.834H3.54297C3.08273 15.834 2.70964 15.4609 2.70964 15.0006L2.70964 7.71676L8.59561 11.7192C9.44401 12.2961 10.5588 12.2961 11.4072 11.7192L17.293 7.71687ZM17.2835 5.70783C17.2227 5.30745 16.877 5.00065 16.4596 5.00065L3.54297 5.00066C3.12566 5.00066 2.77999 5.30741 2.71914 5.70773L9.53279 10.341C9.81559 10.5333 10.1872 10.5333 10.47 10.341L17.2835 5.70783Z" fill="#17696A"/>
</svg>
